<?xml version="1.0" encoding="utf-8"?>
<!-- Generator: Adobe Illustrator 16.0.0, SVG Export Plug-In . SVG Version: 6.00 Build 0)  -->
<!DOCTYPE svg PUBLIC "-//W3C//DTD SVG 1.1 Tiny//EN" "http://www.w3.org/Graphics/SVG/1.1/DTD/svg11-tiny.dtd">
<svg version="1.1" baseProfile="tiny" id="Layer_1" xmlns="http://www.w3.org/2000/svg" xmlns:xlink="http://www.w3.org/1999/xlink"
	 x="0px" y="0px" width="200px" height="200px" viewBox="42 6 116 188" xml:space="preserve">
<g>
	<rect x="96.928" y="79.415" fill="#FAAE1B" width="4.095" height="1.104"/>
	<rect x="96.928" y="84.052" fill="#FAAE1B" width="4.095" height="1.104"/>
	<rect x="96.928" y="88.688" fill="#FAAE1B" width="4.095" height="1.104"/>
	<rect x="96.928" y="93.325" fill="#FAAE1B" width="4.095" height="1.104"/>
	<rect x="96.928" y="97.963" fill="#FAAE1B" width="4.095" height="1.104"/>
	<rect x="96.928" y="102.6" fill="#FAAE1B" width="4.095" height="1.104"/>
	<rect x="96.928" y="107.237" fill="#FAAE1B" width="4.095" height="1.104"/>
	<rect x="96.928" y="75.128" fill="#FAAE1B" width="4.095" height="1.104"/>
	<rect x="96.928" y="70.439" fill="#FAAE1B" width="4.095" height="1.104"/>
	<path fill="#FAAE1B" d="M125.255,150.755c-0.664-0.45-1.561-0.685-2.268-0.839c-0.224-0.051-0.461-0.072-0.674-0.067
		c-2.221,0.025-4.595,0.039-7.255,0.039c-3.468,0-7.038-0.022-10.492-0.042l-0.427-0.003c-3.33-0.02-6.759-0.04-10.104-0.04
		c-7.472,0-13.057,0.101-18.108,0.325c-0.64,0.029-1.182,0.243-1.452,0.572c-1.078,1.317-1.078,4.318,0,5.634
		c0.222,0.271,0.639,0.468,1.145,0.542c4.085,0.604,8.87,0.68,12.581,0.68c1.903,0,3.875-0.022,5.787-0.045l0.076-0.001
		c1.849-0.021,3.944-0.047,5.926-0.047c1.979,0,4.075,0.025,5.925,0.047l0.075,0.001c1.911,0.022,3.884,0.045,5.786,0.045
		c3.712,0,8.496-0.076,12.581-0.68c0.486-0.071,0.895-0.259,1.12-0.514c1.12-1.264,1.12-4.149,0-5.414
		C125.416,150.879,125.341,150.814,125.255,150.755z"/>
	<path fill="#FAAE1B" d="M125.255,161.432c-0.665-0.45-1.561-0.687-2.268-0.841c-0.224-0.049-0.461-0.074-0.674-0.066
		c-2.176,0.025-4.55,0.039-7.255,0.039c-3.468,0-7.038-0.021-10.492-0.042c-3.463-0.021-7.043-0.043-10.53-0.043
		c-7.484,0-13.069,0.101-18.108,0.326c-0.639,0.028-1.181,0.241-1.452,0.572c-1.078,1.316-1.078,4.316,0,5.633
		c0.222,0.27,0.639,0.469,1.145,0.543c4.085,0.602,8.87,0.679,12.581,0.679c1.903,0,3.875-0.022,5.787-0.045l0.076-0.001
		c1.849-0.022,3.944-0.048,5.926-0.048c1.979,0,4.075,0.025,5.925,0.048l0.075,0.001c1.911,0.022,3.884,0.045,5.786,0.045
		c3.712,0,8.496-0.077,12.581-0.679c0.487-0.072,0.895-0.26,1.12-0.514c1.12-1.267,1.12-4.149-0.001-5.416
		C125.414,161.553,125.339,161.488,125.255,161.432z"/>
	<path fill="#FAAE1B" d="M121.595,171.04H78.741c-0.826,0-1.617,0.471-2.116,1.26c-0.492,0.777-0.661,1.771-0.46,2.721
		c2.672,12.728,13.981,18.425,24.002,18.425c10.022,0,21.331-5.697,24.003-18.425c0.2-0.95,0.032-1.941-0.461-2.721
		C123.211,171.511,122.421,171.04,121.595,171.04z"/>
	<path fill="#FAAE1B" d="M99.996,6.224c-31.713,0-57.512,25.799-57.512,57.51c0,12.992,4.256,25.258,12.308,35.474
		c6.351,8.058,12.479,17,17.718,25.857l0.228,0.385l-2.586-11.147l-0.008-0.02c-3.972-6.745-5.371-8.451-8.435-12.188
		c-1.068-1.304-2.399-2.926-4.11-5.098c-7.55-9.58-11.542-21.082-11.542-33.263c0-29.74,24.197-53.937,53.939-53.937
		c29.739,0,53.934,24.196,53.934,53.937c0,12.189-3.993,23.693-11.547,33.27c-5.902,7.488-12.828,17.628-18.527,27.128l-0.14,0.236
		c-0.075,0.124-0.114,0.265-0.114,0.408v15.882c0.09,1.077-0.337,1.7-0.434,1.825h-2.609v-17.748l-3.507-3.468V86.424l-5.099-2.355
		V68.672h-1.105v15.619l-5.392,1.485v32.648l-2.742,2.712V59.312H83.851v31.889l-7.616-8.809v60.162h-0.127v-0.069l-1.645,0.001
		c-1.033,0.149-1.363,0.737-1.331,1.196c0.038,0.564,0.616,1.169,1.612,1.176h51.641c0.436,0,0.79-0.354,0.79-0.791v-18.337
		c0-0.119,0.032-0.236,0.095-0.338c5.548-9.194,12.247-18.979,17.919-26.175c8.056-10.214,12.313-22.483,12.313-35.482
		C157.502,32.023,131.705,6.224,99.996,6.224z M83.851,142.484h-6.096v0.069H77.34V85.358l6.511,7.531V142.484z M90.555,142.484
		h-5.6V94.167l3.732,4.316l1.867,0.097V142.484z M101.609,142.484h-1.432v-17.286l1.432-1.416V142.484z M101.609,122.228
		l-2.536,2.509v17.748h-7.414V97.532l-2.444-0.126l-4.26-4.927V60.416h16.654V122.228z M105.456,142.484h-2.742v-19.795l2.742-2.712
		V142.484z M115.947,142.484h-9.387v-23.599l3.255-3.219l6.132,6.063V142.484z M115.947,120.177l-6.132-6.063l-3.255,3.219V86.618
		l5.185-1.428l4.202,1.94V120.177z M119.454,142.484h-2.402v-19.662l2.402,2.376V142.484z"/>
</g>
</svg>
